<?xml version="1.0" encoding="UTF-8"?>
<svg id="Layer_1" data-name="Layer 1" xmlns="http://www.w3.org/2000/svg" viewBox="0 0 508.64 508.64">
  <defs>
    <style>
      .cls-1 {
        fill: #e7a20c;
        stroke: #000;
        stroke-miterlimit: 10;
        stroke-width: 5px;
      }
    </style>
  </defs>
  <circle class="cls-1" cx="254.32" cy="254.32" r="251.82"/>
  <path id="Eye1" d="m275.21,142.04c.36,1.98,1.35,8.65,9.39,7.94,7.37-.65,9.69-8.87,9.91-13.15.3-5.84-7.18-7.25-12.77-6.56-4.03.5-9.41,1.06-6.53,11.76Z"/>
  <path id="Shilouette" d="m347.4,291.13c-5.66,19.13-19.79,29.59-29.52,43.21-1.63,2.28-4.02,5.68-7.06,3.91-2.02-1.18-3.34-4.82-3.59-7.49-.53-5.62-.16-11.34-.16-17.08-6.89,3.27-6.84,16.8-17.12,13.36-8.6-2.88-12.31-11.51-15.2-20.13,2.03-.52,2.49-.77,2.93-.74,7.94.51,6.69,16.99,16.83,11.2,10.92-6.22,17.75-32.96,12.5-42.78-2.17-4.06-3.33-9.36-10.7-11.45,8.19,17.14-3.02,24.19-14.49,30.86-19.94,11.58-30.54,27.37-29.12,51.81,1.58,27.18.42,54.53.25,81.8-.02,4.17,1.24,8.74-2.13,12.7-5.83-3.27-3.64-8.8-3.71-13.27-.37-24.3-.58-48.6-.47-72.9.13-27.04-8.3-49.27-33.22-63.15-10.94-6.09-16.39-14.54-7.69-27.69-19.16,9.87-19.85,24.87-3.64,54.66,6.95-.9,6.74-10.65,14.86-11.72-.08,10.16-5.25,20.24-12.82,21.06-14.46,1.57-9.81-16.69-18.37-23.22-11.49,9.09,2.62,23.26-7.04,32.99-9.37-4.34-16.82-11.04-21.13-21.03-3.03-7.02-6.55-7.85-13.48-3.41-26.8,17.15-43.64,39.57-43.65,72.85,0,18.62-1.62,37.24-2.57,57.1-8.4-3.36-6.77-8.92-6.91-13.27-.68-21.86,1.18-43.57,3.69-65.28,2.85-24.76,20.03-39.16,37.65-52.95,8.78-6.87,11.84-12.68,6.09-23.44-6.27-11.73-4.52-24.51,3.1-35.29,12.51-17.7,11.96-34.75,3.56-54.46-23.14-54.28,9.72-142.65,62.08-170.59,36.8-19.65,86.57-9.72,113.81,25.67,32.24,41.9,45.8,89.25,26.99,140.93-9.41,25.85-5.94,48.11,4.13,72.95,7.67,18.93,18.07,33.12,33.95,44.59,18.52,13.38,27.82,31.97,29.01,54.48,1.31,24.96,5.28,49.99.52,76.03-7.79-3.17-5.54-8.82-5.78-13.07-1.06-18.31-2.01-36.64-2.47-54.97-.63-25.47-10.07-45.97-31.54-60.67-9.33-6.39-17.9-13.9-28.34-22.11ZM195.64,111.76c-10.13,19.2-8.72,42.67-22.42,60.54-1.43,1.87-1.29,4.68.48,5.06,15.83,3.4,15.34,19.13,22.22,29.15,23.1,33.63,72.87,47.2,104.51-.01,4.09-6.1,6.73-13.19,9.94-19.87,1.9-3.97,3.27-7.63,8.53-9.22,15.37-4.66,24.55-28.14,17.02-41.96-2.09-3.85-5.78-7.52-9.35-5.04-15.84,11.07-15.34-3.27-17.87-11.38-5.63-18.01-11.15-35.93-23.98-50.49-15-17.02-26.92-19.69-47.26-10.28-23.3,10.78-35.66,30.17-42.33,54l.5-.51Zm18.58,121.43c-1.59,14.77.64,26.93-4.67,38.1-2.17,4.56.16,8.22,3.5,10.19,15.24,9.03,28.2,20.19,36.21,41.53,7.18-20.72,19.57-30.05,33.8-37.65,4.73-2.53,10.02-5.67,8.57-12.41-2.84-13.25-2.86-26.85-3.89-43.37-24.6,21.01-48.52,17.38-73.52,3.6Z"/>
  <path id="Eye2" d="m225.07,142.65c-.36,1.98-1.35,8.65-9.39,7.94-7.37-.65-9.69-8.87-9.91-13.15-.3-5.84,7.18-7.25,12.77-6.56,4.03.5,9.41,1.06,6.53,11.76Z"/>
  <path id="Eyebrow1" d="m266.03,114.83c17.79-5.56,25.88-5.54,36.85,0h-36.85Z"/>
  <path id="Eyebrow2" d="m234.24,114.83c-17.79-5.56-25.88-5.54-36.85,0,12.19,0,23.05,0,36.85,0Z"/>
  <path id="Mouth" d="m269.58,196.23c-11.2,11.13-23.9,11.41-36.33.79,13.08,1.45,24.74,1.91,36.33-.79Z"/>
  <path id="Nose" d="m245.15,174.66c6.05,6.29,8.8,6.27,12.53,0h-12.53Z"/>
  <g id="Glasses">
    <path d="m312.82,122.75c-7.85-8.54-34.89-8.47-47.08-1.13-6.99,4.2-11.63,5.52-14.31,5.89-2.7-.37-7.34-1.68-14.33-5.89-12.16-7.34-39.21-7.41-47.08,1.13-7.87,8.56-5.68,20.24-5.68,20.24,0,0,5.68,25.76,30.65,25.92,24.95.14,30.14-21.42,30.14-21.42,0,0,1.41-4.02,5.28-4.52v.02c.32-.05.65-.07.95-.09h.12c.3.02.62.05.95.09v-.02c3.9.51,5.29,4.52,5.29,4.52,0,0,5.19,21.56,30.16,21.42,24.95-.16,30.63-25.92,30.63-25.92,0,0,2.19-11.68-5.68-20.24Zm-75.7,20.86c-5.45,19.39-21.67,16.09-21.67,16.09,0,0-19.82-.3-22.8-17.12-2.95-16.85,22.52-17.33,22.52-17.33,0,0,27.39-1.02,21.95,18.37Zm72.95-1.04c-2.98,16.82-22.8,17.12-22.8,17.12,0,0-16.22,3.3-21.67-16.09-5.45-19.39,21.95-18.37,21.95-18.37,0,0,25.48.48,22.52,17.33Z"/>
  </g>
</svg>